<?xml version="1.0" standalone="no"?>
<!DOCTYPE svg PUBLIC "-//W3C//DTD SVG 20010904//EN"
 "http://www.w3.org/TR/2001/REC-SVG-20010904/DTD/svg10.dtd">
<svg version="1.0" xmlns="http://www.w3.org/2000/svg"
 width="960.000000pt" height="690.000000pt" viewBox="0 0 960.000000 690.000000"
 preserveAspectRatio="xMidYMid meet">
<metadata>
Created by potrace 1.16, written by Peter Selinger 2001-2019
</metadata>
<g transform="translate(0.000000,690.000000) scale(0.100000,-0.100000)"
fill="#000000" stroke="none">
<path d="M5198 6447 c-179 -149 -255 -210 -629 -518 -70 -57 -173 -142 -229
-189 -98 -81 -165 -136 -676 -555 -120 -98 -221 -182 -224 -185 -22 -23 -112
-91 -116 -87 -3 3 -14 164 -24 358 -11 195 -24 421 -30 504 -5 82 -6 153 -2
157 4 4 27 8 52 11 l45 4 -52 1 c-50 2 -52 3 -56 35 l-4 32 -1 -33 -2 -33 -52
5 c-29 3 -177 13 -328 21 -395 22 -398 22 -403 48 -4 21 -4 21 -6 -1 -1 -22
-5 -23 -66 -21 -36 1 -67 0 -69 -2 -2 -2 -6 -34 -9 -71 l-5 -68 69 0 69 0 -5
-42 c-3 -24 -19 -203 -35 -398 -17 -195 -35 -402 -40 -459 -6 -58 -10 -110
-10 -118 0 -10 -19 -13 -71 -13 -56 0 -70 -3 -66 -14 23 -58 89 -312 94 -357
5 -50 -11 -330 -22 -385 -3 -12 -88 -89 -207 -186 -112 -91 -313 -257 -448
-367 -135 -111 -301 -248 -369 -304 -68 -56 -179 -148 -247 -204 l-123 -102
-67 10 c-85 12 -94 6 -14 -10 33 -7 60 -13 60 -15 0 -2 -50 -43 -110 -91 -61
-48 -110 -90 -110 -92 0 -6 71 45 164 116 44 34 87 61 96 61 9 0 70 -11 136
-24 65 -14 276 -56 468 -95 319 -64 390 -81 342 -81 -10 0 -233 -18 -495 -41
-262 -22 -546 -46 -631 -53 -142 -12 -72 -14 795 -16 523 -1 959 -5 970 -8 11
-4 20 -16 20 -27 0 -19 9 -20 140 -26 82 -3 184 -14 245 -27 301 -61 1168
-237 1323 -268 221 -44 223 -44 231 -86 13 -67 67 -106 163 -119 94 -12 197
-26 333 -44 63 -9 234 -31 380 -50 146 -20 328 -44 405 -55 142 -21 964 -131
1305 -176 102 -13 281 -38 398 -54 249 -35 278 -36 315 -11 61 40 70 68 132
396 32 171 66 355 76 410 9 55 33 186 53 290 19 105 51 276 70 380 73 397 107
577 146 787 22 120 40 228 40 242 0 14 4 27 10 31 8 5 90 -51 311 -209 22 -15
42 -26 44 -25 2 2 -68 62 -156 133 -87 71 -165 136 -173 145 -15 17 -14 25 39
306 8 44 24 127 34 185 11 58 41 220 67 360 25 140 47 260 49 265 1 6 121 82
266 170 145 87 283 171 306 186 l42 26 -162 22 c-229 31 -421 51 -497 51 -68
0 -135 -14 -145 -30 -6 -9 -24 -107 -75 -390 -10 -58 -40 -217 -65 -355 -25
-137 -50 -272 -55 -300 -17 -102 -52 -280 -56 -284 -3 -4 -142 107 -279 222
-80 67 -84 71 -185 152 -41 33 -77 62 -80 65 -3 3 -67 56 -142 118 -75 62
-140 116 -143 121 -2 5 4 68 15 141 12 73 19 134 17 136 -2 2 -92 7 -200 10
l-197 7 -157 131 c-87 72 -232 192 -323 266 -91 74 -170 139 -176 145 -6 5
-67 55 -134 110 -67 55 -182 149 -254 209 -72 60 -192 159 -266 219 -74 60
-142 116 -150 123 -14 12 -43 -9 -212 -149z m422 -414 c117 -82 229 -160 249
-174 20 -14 72 -50 116 -80 350 -241 535 -373 535 -380 0 -5 -10 -7 -22 -5
-13 3 -122 8 -243 11 -521 14 -1738 86 -1758 104 -4 4 113 95 259 202 146 107
324 237 395 289 71 52 155 114 187 137 31 23 60 43 64 43 3 0 102 -66 218
-147z m-2376 -140 c-2 -21 -16 -173 -30 -338 -14 -165 -30 -349 -35 -410 -5
-60 -12 -153 -16 -206 l-6 -96 -90 -7 c-50 -3 -201 -6 -337 -6 l-247 0 -7 31
c-3 17 -6 251 -6 520 l0 489 33 1 c17 0 172 13 342 28 171 16 331 29 357 30
l46 1 -4 -37z m1036 -566 c0 -7 27 -95 60 -197 33 -102 60 -193 60 -202 0 -14
-8 -18 -32 -18 -18 0 -114 -7 -213 -15 -246 -20 -521 -37 -540 -33 -9 2 32 37
102 87 65 47 120 87 123 90 3 4 21 17 40 31 19 13 113 82 209 152 95 70 177
125 182 122 5 -3 9 -11 9 -17z m2235 -100 c287 -76 456 -254 530 -558 80 -330
11 -651 -183 -852 -119 -123 -293 -206 -527 -251 -76 -15 -565 -59 -572 -52
-2 1 3 19 11 38 19 45 50 167 44 173 -2 3 -69 14 -149 25 -79 12 -150 22 -158
23 -9 1 -21 -20 -33 -58 -11 -33 -23 -64 -27 -68 -7 -7 -123 75 -230 161 -14
12 -11 18 34 54 28 23 79 71 115 108 83 84 115 164 108 268 -6 80 -31 133 -90
190 -54 53 -105 78 -199 98 -87 19 -256 13 -358 -11 -35 -9 -65 -14 -67 -13
-1 2 -10 95 -18 208 -9 113 -21 254 -26 314 -11 124 -10 126 57 126 23 0 86 4
140 10 54 5 334 28 623 50 289 22 534 42 545 44 11 3 92 3 180 1 129 -3 178
-9 250 -28z m922 -458 c120 -83 227 -157 238 -165 31 -23 275 -192 327 -227
26 -18 48 -40 48 -49 0 -10 -11 -75 -25 -145 -13 -71 -31 -166 -39 -213 -8
-47 -40 -222 -71 -390 -67 -365 -137 -752 -165 -910 -11 -63 -34 -185 -50
-270 -16 -85 -39 -208 -51 -273 -15 -81 -25 -117 -35 -117 -19 0 -312 38 -429
56 -55 8 -203 28 -330 44 -126 16 -295 39 -375 51 -80 11 -179 25 -220 29 -41
5 -140 18 -220 29 -80 12 -284 39 -455 61 -170 22 -332 44 -360 50 -27 5 -93
14 -145 20 -52 5 -176 21 -275 35 -99 14 -250 34 -335 45 -128 17 -337 45
-555 76 -22 3 -42 8 -44 10 -2 2 187 4 422 4 l425 0 -5 118 c-3 64 -7 119 -9
121 -2 2 -75 -3 -161 -11 -87 -9 -160 -14 -163 -12 -4 5 -11 68 -60 569 -11
116 -27 280 -36 365 -8 85 -21 215 -28 287 -7 73 -15 136 -19 139 -4 4 -7 -4
-7 -17 0 -13 -23 -171 -50 -349 -85 -555 -125 -813 -142 -935 -6 -44 -16 -85
-22 -91 -6 -7 -97 -20 -209 -30 -166 -15 -200 -15 -207 -4 -5 7 -83 221 -175
474 -277 764 -308 847 -311 844 -1 -2 2 -39 7 -83 4 -44 33 -336 64 -650 30
-313 58 -584 61 -602 l6 -31 -54 -7 c-31 -4 -97 0 -163 9 -60 9 -143 20 -183
25 -41 5 -75 11 -77 13 -2 2 -8 57 -14 123 -15 161 -52 543 -101 1035 -58 581
-58 574 -51 582 3 4 125 18 271 32 146 14 309 31 363 37 55 6 101 9 103 7 3
-4 195 -524 321 -873 36 -99 68 -183 72 -188 4 -4 13 35 20 85 7 51 37 251 67
443 29 193 61 401 70 462 10 62 20 117 23 122 3 4 146 23 316 41 171 17 336
35 368 39 65 8 61 13 71 -88 l5 -55 -57 -52 c-157 -141 -156 -361 2 -540 l46
-52 -71 -42 c-97 -58 -179 -142 -221 -227 -31 -63 -33 -75 -33 -168 0 -89 3
-106 28 -157 72 -146 201 -226 408 -253 l46 -6 6 -67 c3 -37 3 -122 0 -189
l-6 -123 43 0 43 0 -7 78 c-3 42 -8 118 -11 167 -4 50 -8 99 -10 111 -4 20 2
21 108 33 195 21 363 77 476 159 l44 32 107 -57 107 -57 6 -76 c3 -41 12 -145
18 -231 l12 -156 120 -7 c66 -3 401 -6 744 -6 492 0 623 3 623 13 0 6 -7 48
-15 92 -21 104 -61 413 -77 590 -8 90 -13 296 -13 580 0 442 11 644 50 945 7
58 11 108 9 112 -16 25 40 -9 233 -143z m-2322 -489 c66 -62 25 -174 -96 -261
l-27 -19 -45 49 c-99 106 -104 186 -13 242 45 29 145 23 181 -11z m-2701 -347
c51 -355 91 -761 102 -1036 6 -134 5 -158 -7 -156 -8 1 -66 -1 -129 -5 -120
-8 -136 -7 -545 49 -188 26 -289 40 -680 91 -110 15 -203 29 -207 33 -4 3 71
63 165 132 194 142 668 490 797 585 355 260 485 354 490 354 4 0 10 -21 14
-47z m2535 -366 c36 -29 114 -88 174 -131 59 -43 107 -82 107 -85 0 -9 -34
-29 -105 -64 -70 -35 -179 -47 -239 -27 -45 14 -101 62 -122 101 -16 32 -18
96 -4 134 11 29 97 125 113 125 5 0 40 -24 76 -53z"/>
<path d="M5743 4667 c-122 -8 -143 -12 -143 -26 1 -54 48 -572 52 -576 8 -8
245 14 321 30 38 8 94 26 124 40 142 65 199 222 134 371 -24 54 -76 111 -123
135 -35 18 -156 40 -203 37 -11 -1 -84 -5 -162 -11z"/>
<path d="M490 2388 c0 -2 -14 -79 -30 -173 -17 -93 -46 -260 -65 -370 -19
-110 -39 -224 -45 -254 -6 -30 -7 -58 -3 -62 8 -7 255 -50 260 -46 1 2 15 79
31 172 17 102 33 170 41 173 20 7 69 -18 85 -44 9 -13 40 -96 70 -184 29 -89
56 -163 58 -166 7 -6 289 -56 294 -51 7 7 -88 293 -112 334 -13 23 -38 53 -55
66 l-32 25 34 7 c137 27 209 112 209 247 0 108 -50 181 -148 218 -69 26 -592
121 -592 108z m388 -244 c24 -7 52 -20 63 -30 41 -37 10 -126 -48 -137 -42 -8
-193 13 -193 27 0 16 20 126 26 149 5 16 13 18 57 12 29 -4 72 -13 95 -21z"/>
<path d="M1426 2203 c-3 -15 -24 -134 -46 -263 -23 -129 -54 -311 -71 -404
-17 -92 -29 -169 -27 -171 3 -3 284 -53 615 -111 57 -9 105 -15 108 -12 8 8
38 179 32 185 -5 4 -134 28 -424 78 -18 3 -33 7 -33 8 0 13 32 162 35 165 4 5
330 -49 391 -64 20 -5 23 1 33 63 7 37 14 77 16 89 4 19 -8 22 -202 57 -114
21 -208 39 -209 40 -1 1 3 31 10 67 l11 65 35 -3 c19 -2 118 -19 220 -37 102
-19 188 -31 192 -27 4 4 13 44 21 90 10 60 11 85 3 87 -14 5 -304 57 -501 90
-82 14 -162 28 -177 31 -23 4 -27 1 -32 -23z"/>
<path d="M2306 2071 c-2 -3 -20 -100 -41 -216 -20 -115 -54 -307 -75 -425 -21
-118 -37 -216 -35 -218 3 -3 210 -41 212 -38 4 4 59 304 104 571 6 33 11 61
13 62 1 2 8 -59 14 -135 19 -216 42 -499 42 -515 0 -17 186 -55 200 -41 4 5
24 45 43 89 19 44 48 109 64 145 17 36 61 134 98 217 38 84 70 151 72 149 2
-1 -21 -144 -52 -317 -30 -172 -51 -317 -47 -320 4 -4 39 -12 77 -18 39 -6 84
-13 101 -17 30 -6 31 -4 38 33 3 21 17 103 32 183 14 80 43 249 64 375 22 127
42 239 45 251 4 20 -5 22 -158 49 -89 15 -168 30 -175 33 -13 4 -14 2 -157
-316 -43 -95 -80 -170 -83 -167 -3 2 -6 19 -8 37 -4 47 -23 296 -31 405 l-6
91 -106 17 c-58 9 -137 22 -174 29 -37 7 -69 10 -71 7z"/>
<path d="M3680 1866 c-129 -29 -277 -140 -338 -254 -54 -102 -66 -148 -66
-257 0 -108 17 -179 61 -247 12 -21 23 -40 23 -43 0 -4 13 -20 30 -38 16 -18
30 -35 30 -38 0 -9 97 -80 146 -106 125 -68 326 -68 458 -1 260 132 366 434
244 695 -34 74 -83 137 -141 181 -137 106 -290 143 -447 108z m282 -153 c181
-85 271 -293 208 -480 -27 -82 -48 -115 -108 -171 -69 -64 -140 -93 -237 -100
-176 -10 -309 68 -388 228 -30 60 -32 72 -31 165 0 87 4 108 27 158 49 104
151 194 256 224 76 22 199 11 273 -24z"/>
<path d="M3753 1524 c-144 -52 -167 -254 -36 -330 111 -66 247 -3 277 129 16
68 -41 163 -119 198 -47 22 -66 22 -122 3z"/>
<path d="M4332 1678 c5 -24 45 -229 87 -457 43 -227 83 -416 89 -420 21 -12
286 -54 289 -45 2 5 107 186 233 403 127 217 230 395 230 396 0 6 -181 37
-224 38 l-48 2 -50 -95 c-28 -52 -93 -180 -145 -284 -65 -131 -98 -185 -103
-175 -4 8 -13 57 -18 109 -13 116 -61 477 -67 507 -4 17 -14 23 -53 28 -26 4
-82 13 -126 21 -110 20 -106 21 -94 -28z"/>
<path d="M5502 1478 c-11 -18 -86 -145 -167 -283 -81 -137 -179 -303 -217
-368 -39 -65 -69 -119 -67 -121 5 -5 229 -46 251 -46 12 0 28 21 49 63 17 34
33 63 34 65 3 3 297 -47 302 -51 1 -2 7 -36 13 -77 6 -41 11 -74 13 -75 7 -4
269 -46 272 -43 3 3 -166 911 -171 917 -3 4 -261 51 -281 51 -6 0 -20 -15 -31
-32z m138 -330 c7 -57 16 -125 20 -153 4 -27 6 -52 4 -54 -6 -6 -174 21 -179
29 -5 8 127 279 136 280 4 0 12 -46 19 -102z"/>
<path d="M6225 1378 c-2 -7 -11 -56 -20 -108 -8 -52 -20 -117 -25 -145 -5 -27
-25 -142 -45 -255 -19 -113 -39 -229 -45 -259 -5 -29 -10 -62 -10 -71 0 -19 1
-20 552 -116 130 -23 129 -23 145 66 23 135 27 123 -47 137 -36 7 -126 22
-200 34 -74 12 -138 25 -142 28 -5 4 15 135 42 291 28 157 51 303 53 324 l2
40 -95 18 c-52 9 -110 20 -128 23 -22 4 -34 2 -37 -7z"/>
<path d="M7125 1187 c-97 -47 -144 -119 -145 -223 0 -112 65 -179 272 -278
116 -56 158 -90 158 -128 0 -74 -96 -110 -187 -69 -46 21 -69 56 -79 119 -7
44 3 41 -186 58 l-76 7 4 -59 c3 -33 17 -85 31 -117 46 -102 129 -154 307
-190 90 -18 114 -20 178 -11 82 12 128 31 174 71 104 92 130 235 61 339 -42
63 -100 104 -247 170 -69 31 -133 63 -142 72 -26 22 -22 57 8 81 31 24 51 26
106 9 46 -13 75 -46 84 -93 7 -37 9 -37 139 -50 33 -4 72 -9 88 -11 26 -5 27
-4 27 38 0 77 -18 119 -75 175 -73 71 -172 103 -335 110 -106 4 -119 2 -165
-20z"/>
</g>
</svg>
